<?xml version="1.0" standalone="no"?>
<!DOCTYPE svg PUBLIC "-//W3C//DTD SVG 20010904//EN"
 "http://www.w3.org/TR/2001/REC-SVG-20010904/DTD/svg10.dtd">
<svg version="1.0" xmlns="http://www.w3.org/2000/svg"
 width="1000.000000pt" height="1000.000000pt" viewBox="0 0 1000.000000 1000.000000"
 preserveAspectRatio="xMidYMid meet">
<metadata>
Created by potrace 1.14, written by Peter Selinger 2001-2017
</metadata>
<g transform="translate(0.000000,1000.000000) scale(0.100000,-0.100000)"
fill="#000000" stroke="none">
<path d="M4685 9959 c-505 -31 -1042 -151 -1535 -346 -145 -57 -481 -220 -625
-303 -264 -151 -539 -347 -772 -548 -159 -138 -431 -412 -552 -557 -658 -790
-1045 -1713 -1147 -2737 -24 -236 -24 -690 0 -926 63 -638 232 -1220 516
-1782 233 -461 512 -848 880 -1224 328 -335 681 -610 1075 -836 144 -83 480
-246 625 -303 1198 -472 2482 -472 3680 0 145 57 481 220 625 303 264 151 539
347 772 548 159 138 431 412 552 557 587 705 958 1513 1105 2412 82 499 82
1077 0 1576 -85 520 -238 991 -474 1457 -233 461 -512 848 -880 1224 -328 335
-681 610 -1075 836 -144 83 -480 246 -625 303 -692 273 -1415 389 -2145 346z
m2333 -3221 c-3 -828 -4 -844 -25 -920 -58 -204 -163 -305 -344 -327 -261 -33
-432 88 -495 349 -15 64 -18 134 -22 463 l-4 387 -994 0 -994 0 69 -87 c1056
-1337 1259 -1598 1252 -1608 -88 -110 -1309 -1674 -1315 -1682 -6 -10 195 -13
988 -13 l996 0 0 334 c0 372 10 502 45 614 57 180 155 254 354 269 148 10 280
-25 354 -95 38 -36 83 -127 110 -221 21 -75 21 -91 25 -933 l3 -858 -2011 0
-2010 0 0 445 0 446 663 842 c365 463 666 847 670 854 5 7 -248 337 -663 863
l-670 851 0 434 0 435 2010 0 2011 0 -3 -842z"/>
</g>
</svg>
